<svg id="SvgjsSvg1006" width="516" height="297" xmlns="http://www.w3.org/2000/svg" version="1.1" xmlns:xlink="http://www.w3.org/1999/xlink" xmlns:svgjs="http://svgjs.com/svgjs">
<defs id="SvgjsDefs1007">
<marker id="SvgjsMarker1016" markerWidth="16" markerHeight="12" refX="16" refY="6" viewBox="0 0 16 12" orient="auto" markerUnits="userSpaceOnUse">
<path id="SvgjsPath1017" d="M0,2 L14,6 L0,11 L0,2" fill="#323232" stroke="#323232" stroke-width="2">
</path>
</marker>
<marker id="SvgjsMarker1026" markerWidth="16" markerHeight="12" refX="16" refY="6" viewBox="0 0 16 12" orient="auto" markerUnits="userSpaceOnUse">
<path id="SvgjsPath1027" d="M0,2 L14,6 L0,11 L0,2" fill="#323232" stroke="#323232" stroke-width="2">
</path>
</marker>
<marker id="SvgjsMarker1036" markerWidth="16" markerHeight="12" refX="16" refY="6" viewBox="0 0 16 12" orient="auto" markerUnits="userSpaceOnUse">
<path id="SvgjsPath1037" d="M0,2 L14,6 L0,11 L0,2" fill="#323232" stroke="#323232" stroke-width="2">
</path>
</marker>
<marker id="SvgjsMarker1046" markerWidth="16" markerHeight="12" refX="16" refY="6" viewBox="0 0 16 12" orient="auto" markerUnits="userSpaceOnUse">
<path id="SvgjsPath1047" d="M0,2 L14,6 L0,11 L0,2" fill="#323232" stroke="#323232" stroke-width="2">
</path>
</marker>
</defs>
<g id="SvgjsG1008" transform="translate(25,114)">
<path id="SvgjsPath1009" d="M 0 35C 0 -11.666666666666666 70 -11.666666666666666 70 35C 70 81.66666666666667 0 81.66666666666667 0 35Z" stroke="#323232" stroke-width="2" fill-opacity="1" fill="#ffffff">
</path>
<g id="SvgjsG1010">
<text id="SvgjsText1011" font-family="微软雅黑" text-anchor="middle" font-size="13px" width="31" fill="#323232" font-weight="400" align="middle" anchor="middle" family="微软雅黑" size="13px" weight="400" font-style="" y="25.05" transform="rotate(0)">
<tspan id="SvgjsTspan1012" dy="16" x="35">
<tspan id="SvgjsTspan1013" style="text-decoration:;">test1</tspan></tspan></text>
</g></g>
<g id="SvgjsG1014">
<path id="SvgjsPath1015" d="M95 149L173 149" stroke="#323232" stroke-width="2" fill="none" marker-end="url(#SvgjsMarker1016)">
</path></g><g id="SvgjsG1018" transform="translate(173,114)"><path id="SvgjsPath1019" d="M 0 4Q 0 0 4 0L 96 0Q 100 0 100 4L 100 66Q 100 70 96 70L 4 70Q 0 70 0 66Z" stroke="#323232" stroke-width="2" fill-opacity="1" fill="#ffffff"></path>
<g id="SvgjsG1020">
<text id="SvgjsText1021" font-family="微软雅黑" text-anchor="middle" font-size="13px" width="31" fill="#323232" font-weight="400" align="middle" anchor="middle" family="微软雅黑" size="13px" weight="400" font-style="" y="25.05" transform="rotate(0)"><tspan id="SvgjsTspan1022" dy="16" x="50"><tspan id="SvgjsTspan1023" style="text-decoration:;">test2</tspan></tspan></text></g></g><g id="SvgjsG1024"><path id="SvgjsPath1025" d="M273 149L391 60" stroke="#323232" stroke-width="2" fill="none" marker-end="url(#SvgjsMarker1026)"></path></g><g id="SvgjsG1028" transform="translate(391,25)"><path id="SvgjsPath1029" d="M 0 0L 100 0L 100 70L 0 70Z" stroke="#323232" stroke-width="2" fill-opacity="1" fill="#ffffff"></path><g id="SvgjsG1030"><text id="SvgjsText1031" font-family="微软雅黑" text-anchor="middle" font-size="13px" width="31" fill="#323232" font-weight="400" align="middle" anchor="middle" family="微软雅黑" size="13px" weight="400" font-style="" y="25.05" transform="rotate(0)"><tspan id="SvgjsTspan1032" dy="16" x="50"><tspan id="SvgjsTspan1033" style="text-decoration:;">test3</tspan></tspan></text></g></g>
<g id="SvgjsG1034">
<path id="SvgjsPath1035" d="M273 149L391 237" stroke="#323232" stroke-width="2" fill="none" marker-end="url(#SvgjsMarker1036)">
</path>
</g>
<g id="SvgjsG1038" transform="translate(391,202)">
<path id="SvgjsPath1039" d="M 0 0L 100 0L 100 70L 0 70Z" stroke="#323232" stroke-width="2" fill-opacity="1" fill="#ffffff">
</path>
<g id="SvgjsG1040">
<text id="SvgjsText1041" font-family="微软雅黑" text-anchor="middle" font-size="13px" width="31" fill="#323232" font-weight="400" align="middle" anchor="middle" family="微软雅黑" size="13px" weight="400" font-style="" y="25.05" transform="rotate(0)">
<tspan id="SvgjsTspan1042" dy="16" x="50">
<tspan id="SvgjsTspan1043" style="text-decoration:;">
test5
</tspan>
</tspan>
</text>
</g>
</g>
<g id="SvgjsG1044">
<path id="SvgjsPath1045" d="M273 149L391 149" stroke="#323232" stroke-width="2" fill="none" marker-end="url(#SvgjsMarker1046)">
</path>
</g>
<g id="SvgjsG1048" transform="translate(391,114)">
<path id="SvgjsPath1049" d="M 0 0L 100 0L 100 70L 0 70Z" stroke="#323232" stroke-width="2" fill-opacity="1" fill="#ffffff">
</path>
<g id="SvgjsG1050">
<text id="SvgjsText1051" font-family="微软雅黑" text-anchor="middle" font-size="13px" width="31" fill="#323232" font-weight="400" align="middle" anchor="middle" family="微软雅黑" size="13px" weight="400" font-style="" y="25.05" transform="rotate(0)">
<tspan id="SvgjsTspan1052" dy="16" x="50">
<tspan id="SvgjsTspan1053" style="text-decoration:;">
test4
</tspan>
</tspan>
</text>
</g>
</g>
</svg>